HIERARCHY
ROOT joint_Root
{
	OFFSET 0.0 0.0 0.0
	CHANNELS 6 Xposition Yposition Zposition Zrotation Xrotation Yrotation 
	JOINT Hips
	{
		OFFSET -17.1583 93.1646 452.98
		CHANNELS 6 Xposition Yposition Zposition Zrotation Xrotation Yrotation 
		JOINT Spine
		{
			OFFSET 15.7357 0.0 0.0
			CHANNELS 6 Xposition Yposition Zposition Zrotation Xrotation Yrotation 
			JOINT Chest
			{
				OFFSET 8.98455 -0.406207 0.0
				CHANNELS 6 Xposition Yposition Zposition Zrotation Xrotation Yrotation 
				JOINT Neck
				{
					OFFSET 16.3773 0.0 0.0
					CHANNELS 6 Xposition Yposition Zposition Zrotation Xrotation Yrotation 
					JOINT Head
					{
						OFFSET 6.45672 0.0 0.0
						CHANNELS 6 Xposition Yposition Zposition Zrotation Xrotation Yrotation 
						End Site
						{
							OFFSET 0.0 0.0 0.0
						}
					}
				}
				JOINT Shoulder_L
				{
					OFFSET 12.9942 -0.242716 4.98039
					CHANNELS 6 Xposition Yposition Zposition Zrotation Xrotation Yrotation 
					JOINT UpperArm_L
					{
						OFFSET 5.34809 0.0 0.0
						CHANNELS 6 Xposition Yposition Zposition Zrotation Xrotation Yrotation 
						JOINT LowerArm_L
						{
							OFFSET 24.3286 1.87007e-05 0.0
							CHANNELS 6 Xposition Yposition Zposition Zrotation Xrotation Yrotation 
							JOINT Hand_L
							{
								OFFSET 22.2916 0.0 0.0
								CHANNELS 6 Xposition Yposition Zposition Zrotation Xrotation Yrotation 
								End Site
								{
									OFFSET 0.0 0.0 0.0
								}
							}
						}
					}
				}
				JOINT Shoulder_R
				{
					OFFSET 12.9945 -0.242716 -4.98039
					CHANNELS 6 Xposition Yposition Zposition Zrotation Xrotation Yrotation 
					JOINT UpperArm_R
					{
						OFFSET -5.34813 0.0 0.0
						CHANNELS 6 Xposition Yposition Zposition Zrotation Xrotation Yrotation 
						JOINT LowerArm_R
						{
							OFFSET -24.3289 0.000322201 0.0
							CHANNELS 6 Xposition Yposition Zposition Zrotation Xrotation Yrotation 
							JOINT Hand_R
							{
								OFFSET -22.2915 -0.000108084 0.0
								CHANNELS 6 Xposition Yposition Zposition Zrotation Xrotation Yrotation 
								End Site
								{
									OFFSET 0.0 0.0 0.0
								}
							}
						}
					}
				}
			}
		}
		JOINT UpperLeg_L
		{
			OFFSET -2.19248 -6.46944 0.0
			CHANNELS 6 Xposition Yposition Zposition Zrotation Xrotation Yrotation 
			JOINT LowerLeg_L
			{
				OFFSET 39.0811 0.0 -1.23785e-05
				CHANNELS 6 Xposition Yposition Zposition Zrotation Xrotation Yrotation 
				JOINT Foot_L
				{
					OFFSET 40.9854 0.0 -1.26872e-05
					CHANNELS 6 Xposition Yposition Zposition Zrotation Xrotation Yrotation 
					JOINT Toes_L
					{
						OFFSET 11.7543 0.0 0.0
						CHANNELS 6 Xposition Yposition Zposition Zrotation Xrotation Yrotation 
						End Site
						{
							OFFSET 0.0 0.0 0.0
						}
					}
				}
			}
		}
		JOINT UpperLeg_R
		{
			OFFSET -2.19251 6.46944 0.0
			CHANNELS 6 Xposition Yposition Zposition Zrotation Xrotation Yrotation 
			JOINT LowerLeg_R
			{
				OFFSET -39.0811 -0.00228153 -0.0401928
				CHANNELS 6 Xposition Yposition Zposition Zrotation Xrotation Yrotation 
				JOINT Foot_R
				{
					OFFSET -40.9854 0.0 0.0
					CHANNELS 6 Xposition Yposition Zposition Zrotation Xrotation Yrotation 
					JOINT Toes_R
					{
						OFFSET -11.7543 0.0 0.0
						CHANNELS 6 Xposition Yposition Zposition Zrotation Xrotation Yrotation 
						End Site
						{
							OFFSET 0.0 0.0 0.0
						}
					}
				}
			}
		}
	}
}
MOTION
Frames:	7
Frame Time:	0.0333333
0.000000 0.000000 0.000000 0.000000 0.000000 -0.000000 -0.748715 92.557100 1.230600 86.321700 -0.657929 -0.483414 15.735700 0.000005 -0.000001 90.630700 87.908400 -88.607100 8.984550 -0.406207 -0.000000 -3.577060 -0.154162 4.043580 16.377300 -0.000001 -0.000001 4.136490 4.251740 -2.268220 6.456720 -0.000001 -0.000000 4.344060 4.991570 -4.801950 12.994200 -0.242716 4.980390 -92.531600 7.918690 -72.207300 5.348090 -0.000007 -0.000001 -73.392500 10.563300 2.598630 24.328600 0.000019 0.000005 11.898100 26.249300 -25.472800 22.291600 -0.000001 0.000005 -1.928800 4.965980 8.034860 12.994500 -0.242716 -4.980390 88.728900 4.461300 -74.078800 -5.348130 -0.000001 -0.000004 -71.237900 30.805600 -3.899780 -24.328900 0.000322 -0.000009 2.219580 7.546900 -16.448900 -22.291500 -0.000108 -0.000004 0.770391 5.280140 0.622432 -2.192480 -6.469440 -0.000000 -175.626000 -1.813010 -3.904800 39.081100 -0.000007 -0.000012 0.254003 -0.639379 21.666800 40.985400 -0.000006 -0.000013 2.950450 9.612490 -74.125300 11.754300 -0.000000 0.000003 -0.000275 0.172133 -9.594940 -2.192510 6.469440 -0.000001 -174.467000 7.824260 -178.333000 -39.081100 -0.002282 -0.040193 0.031406 -0.128175 12.353000 -40.985400 0.000008 0.000006 -0.643442 2.424740 -69.701600 -11.754300 -0.000006 -0.000006 -0.009806 0.269848 -5.610580
0.000000 0.000000 0.000000 0.000000 0.000000 -0.000000 -0.762302 92.563000 1.167210 86.335300 -0.629451 -0.396775 15.735700 0.000005 -0.000001 90.118400 87.868400 -88.068600 8.984550 -0.406207 -0.000000 -3.496070 -0.192536 4.095010 16.377300 -0.000001 -0.000001 4.073200 4.254070 -2.290180 6.456720 -0.000001 -0.000000 4.222430 5.047360 -4.817210 12.994200 -0.242716 4.980390 -92.558400 8.020670 -72.243100 5.348090 -0.000007 -0.000001 -72.276900 9.007390 1.701390 24.328600 0.000019 0.000005 11.594300 26.374900 -24.789100 22.291600 -0.000001 0.000005 -2.419050 4.960590 8.146450 12.994500 -0.242716 -4.980390 88.744700 4.408400 -74.088400 -5.348130 -0.000001 -0.000004 -71.251000 30.798300 -3.909960 -24.328900 0.000322 -0.000009 2.202780 7.474870 -16.479000 -22.291500 -0.000108 -0.000004 0.810079 5.280170 0.621642 -2.192480 -6.469440 -0.000000 -175.623000 -1.869760 -3.868010 39.081100 -0.000007 -0.000012 0.256229 -0.644302 21.687500 40.985400 -0.000006 -0.000013 2.945420 9.669440 -74.176700 11.754300 -0.000000 0.000003 -0.000526 0.176051 -9.435800 -2.192510 6.469440 -0.000001 -174.453000 7.686810 -178.305000 -39.081100 -0.002282 -0.040193 0.032448 -0.132570 12.385800 -40.985400 0.000008 0.000006 -0.566961 2.293530 -69.738800 -11.754300 -0.000006 -0.000006 -0.010131 0.272282 -5.511030
0.000000 0.000000 0.000000 0.000000 0.000000 -0.000000 -0.790803 92.567400 1.092140 86.325600 -0.617453 -0.379061 15.735700 0.000005 -0.000001 89.486300 87.848100 -87.394300 8.984550 -0.406207 -0.000000 -3.454550 -0.243293 4.177940 16.377300 -0.000001 -0.000001 4.028660 4.258850 -2.289370 6.456720 -0.000001 -0.000000 4.083120 5.113230 -4.895340 12.994200 -0.242716 4.980390 -92.623900 8.212140 -72.212100 5.348090 -0.000007 -0.000001 -70.896700 6.466280 0.782403 24.328600 0.000019 0.000005 11.325800 26.217500 -24.387800 22.291600 -0.000001 0.000005 -2.660700 4.945790 8.450340 12.994500 -0.242716 -4.980390 88.761500 4.343190 -74.066800 -5.348130 -0.000001 -0.000004 -71.244600 30.843000 -3.974340 -24.328900 0.000322 -0.000009 2.171870 7.362200 -16.494000 -22.291500 -0.000108 -0.000004 0.724994 5.280850 0.603004 -2.192480 -6.469440 -0.000000 -175.585000 -1.886610 -3.929330 39.081100 -0.000007 -0.000012 0.256218 -0.643003 21.726400 40.985400 -0.000006 -0.000013 2.930380 9.729860 -74.098200 11.754300 -0.000000 0.000003 -0.000324 0.172904 -9.563620 -2.192510 6.469440 -0.000001 -174.387000 7.601840 -178.348000 -39.081100 -0.002282 -0.040193 0.033266 -0.136246 12.390200 -40.985400 0.000008 0.000006 -0.443144 2.148000 -69.709500 -11.754300 -0.000006 -0.000006 -0.010058 0.271738 -5.533290
0.000000 0.000000 0.000000 0.000000 0.000000 -0.000000 -0.818270 92.571000 1.023460 86.396200 -0.612435 -0.302563 15.735700 0.000005 -0.000001 89.228500 87.811300 -87.135600 8.984550 -0.406207 -0.000000 -3.380820 -0.262374 4.179200 16.377300 -0.000001 -0.000001 4.015050 4.262480 -2.306160 6.456720 -0.000001 -0.000000 3.885760 5.157790 -4.827180 12.994200 -0.242716 4.980390 -92.674500 8.330120 -72.129200 5.348090 -0.000007 -0.000001 -69.484300 3.196590 -0.095306 24.328600 0.000019 0.000005 11.065500 25.357400 -24.543800 22.291600 -0.000001 0.000005 -1.679120 4.912050 9.134500 12.994500 -0.242716 -4.980390 88.759000 4.357190 -74.085100 -5.348130 -0.000001 -0.000004 -71.226000 30.725300 -3.961080 -24.328900 0.000322 -0.000009 2.174100 7.367640 -16.498600 -22.291500 -0.000108 -0.000004 0.720171 5.279350 0.644105 -2.192480 -6.469440 -0.000000 -175.623000 -1.893810 -3.885520 39.081100 -0.000007 -0.000012 0.251010 -0.630785 21.699700 40.985400 -0.000006 -0.000013 2.911160 9.780890 -74.046000 11.754300 -0.000000 0.000003 -0.000353 0.173370 -9.544700 -2.192510 6.469440 -0.000001 -174.418000 7.603790 -178.355000 -39.081100 -0.002282 -0.040193 0.036324 -0.149088 12.477100 -40.985400 0.000008 0.000006 -0.244047 2.061720 -69.800600 -11.754300 -0.000006 -0.000006 -0.010359 0.273967 -5.442090
0.000000 0.000000 0.000000 0.000000 0.000000 -0.000000 -0.873290 92.564600 0.969796 86.394200 -0.552040 -0.233285 15.735700 0.000005 -0.000001 89.172400 87.787400 -87.053500 8.984550 -0.406207 -0.000000 -3.332760 -0.268989 4.231020 16.377300 -0.000001 -0.000001 4.019000 4.243460 -2.259170 6.456720 -0.000001 -0.000000 3.711180 5.127250 -4.757220 12.994200 -0.242716 4.980390 -92.720500 8.441550 -72.064100 5.348090 -0.000007 -0.000001 -68.139800 -1.353470 -0.961133 24.328600 0.000019 0.000005 11.052300 24.162000 -25.511500 22.291600 -0.000001 0.000005 -0.519110 4.872770 9.913860 12.994500 -0.242716 -4.980390 88.754800 4.354130 -74.023300 -5.348130 -0.000001 -0.000004 -71.216300 30.594900 -3.918720 -24.328900 0.000322 -0.000009 2.192800 7.425420 -16.511100 -22.291500 -0.000108 -0.000004 0.764732 5.281060 0.597253 -2.192480 -6.469440 -0.000000 -175.584000 -1.870510 -3.928380 39.081100 -0.000007 -0.000012 0.255024 -0.637256 21.811400 40.985400 -0.000006 -0.000013 2.882090 9.808720 -74.035300 11.754300 -0.000000 0.000003 -0.000339 0.173156 -9.553390 -2.192510 6.469440 -0.000001 -174.353000 7.577240 -178.384000 -39.081100 -0.002282 -0.040193 0.038147 -0.155945 12.584200 -40.985400 0.000008 0.000006 -0.199138 1.930940 -69.801600 -11.754300 -0.000006 -0.000006 -0.010043 0.271624 -5.537930
0.000000 0.000000 0.000000 0.000000 0.000000 -0.000000 -0.937752 92.566500 0.925673 86.400700 -0.471363 -0.146169 15.735700 0.000005 -0.000001 89.213300 87.763300 -87.082200 8.984550 -0.406207 -0.000000 -3.284460 -0.266777 4.255530 16.377300 -0.000001 -0.000001 4.045920 4.232230 -2.183530 6.456720 -0.000001 -0.000000 3.532630 5.112980 -4.585340 12.994200 -0.242716 4.980390 -92.756800 8.511190 -71.977700 5.348090 -0.000007 -0.000001 -66.878500 -6.315240 -1.654660 24.328600 0.000019 0.000005 10.769300 21.456400 -27.475900 22.291600 -0.000001 0.000005 1.146790 4.829730 10.745800 12.994500 -0.242716 -4.980390 88.735800 4.400610 -73.954200 -5.348130 -0.000001 -0.000004 -71.169800 30.499300 -3.849140 -24.328900 0.000322 -0.000009 2.179430 7.385810 -16.498600 -22.291500 -0.000108 -0.000004 0.874669 5.279550 0.638542 -2.192480 -6.469440 -0.000000 -175.527000 -1.863680 -3.881850 39.081100 -0.000007 -0.000012 0.253672 -0.633210 21.832200 40.985400 -0.000006 -0.000013 2.841890 9.885920 -74.066900 11.754300 -0.000000 0.000003 -0.000256 0.171830 -9.607230 -2.192510 6.469440 -0.000001 -174.300000 7.579780 -178.299000 -39.081100 -0.002282 -0.040193 0.038603 -0.158529 12.542400 -40.985400 0.000008 0.000006 -0.049724 1.842650 -69.836600 -11.754300 -0.000006 -0.000006 -0.010360 0.273973 -5.441850
0.000000 0.000000 0.000000 0.000000 0.000000 -0.000000 -1.013290 92.551300 0.872876 86.362800 -0.371822 -0.070195 15.735700 0.000005 -0.000001 89.346100 87.748800 -87.197000 8.984550 -0.406207 -0.000000 -3.255370 -0.257935 4.291660 16.377300 -0.000001 -0.000001 4.066470 4.196900 -2.045680 6.456720 -0.000001 -0.000000 3.446800 5.111460 -4.406040 12.994200 -0.242716 4.980390 -92.802100 8.597870 -71.871700 5.348090 -0.000007 -0.000001 -65.832300 -11.557800 -2.242400 24.328600 0.000019 0.000005 10.509400 18.211900 -30.694600 22.291600 -0.000001 0.000005 3.676540 4.762380 12.015900 12.994500 -0.242716 -4.980390 88.717400 4.452420 -73.912500 -5.348130 -0.000001 -0.000004 -71.119900 30.412200 -3.756780 -24.328900 0.000322 -0.000009 2.202570 7.472720 -16.482000 -22.291500 -0.000108 -0.000004 0.836059 5.278730 0.661038 -2.192480 -6.469440 -0.000000 -175.439000 -1.740320 -3.961020 39.081100 -0.000007 -0.000012 0.259946 -0.642382 22.031700 40.985400 -0.000006 -0.000013 2.798670 9.892980 -74.110600 11.754300 -0.000000 0.000003 -0.000414 0.174324 -9.505920 -2.192510 6.469440 -0.000001 -174.174000 7.527550 -178.309000 -39.081100 -0.002282 -0.040193 0.040968 -0.168009 12.625600 -40.985400 0.000008 0.000006 0.138674 1.644610 -69.845700 -11.754300 -0.000006 -0.000006 -0.010004 0.271333 -5.549850
